# xmcd
#
# Track frame offsets:
#       150
#       15000
#       37170
#       52335
#       74737
#       88022
#       116365
#       147630
#       164920
#       177207
#
# Disc length: 2557 seconds
#
# Revision: 0
# Processed by: cddbd v1.4PL0 Copyright (c) Steve Scherf et al.
# Submitted via: WhereIsIt 3.21
#
DISCID=9509fb0a
DTITLE=Sonny Terry and Brownie McGhee - Sun's Gonna Shine
DYEAR=1900
DGENRE=
TTITLE0=Walk On
TTITLE1=Blues For The Lowlands
TTITLE2=Down By The Riverside
TTITLE3=Drinking In The Blues
TTITLE4=Right On That Shore
TTITLE5=Blowin' The Fuses
TTITLE6=Blues For The Gamblers (with Lightnin' Hopkins)
TTITLE7=Just Rode In Your Town
TTITLE8=Po' Boy
TTITLE9=Sun's Gonna Shine
EXTD=
EXTT0=
EXTT1=
EXTT2=
EXTT3=
EXTT4=
EXTT5=
EXTT6=
EXTT7=
EXTT8=
EXTT9=
PLAYORDER=
